<?xml version="1.0" standalone="no"?>
<!DOCTYPE svg PUBLIC "-//W3C//DTD SVG 20010904//EN"
 "http://www.w3.org/TR/2001/REC-SVG-20010904/DTD/svg10.dtd">
<svg version="1.0" xmlns="http://www.w3.org/2000/svg"
 width="50pt" height="65pt" viewBox="0 0 1007.000000 1280.000000"
 preserveAspectRatio="xMidYMid meet">
<g transform="translate(0.000000,1280.000000) scale(0.100000,-0.100000)"
fill="#000000" stroke="none">
<path d="M2980 12660 c-23 -72 -18 -257 10 -365 47 -185 143 -365 281 -523
135 -155 286 -277 659 -532 240 -163 377 -270 485 -376 261 -256 365 -530 310
-813 -10 -50 -22 -95 -29 -100 -6 -5 -76 -43 -156 -83 -249 -127 -420 -242
-555 -375 -281 -274 -415 -594 -415 -991 0 -218 34 -411 117 -667 58 -178 200
-515 217 -515 2 0 -14 82 -35 183 -78 370 -93 487 -93 742 -1 252 7 319 56
475 84 265 252 480 507 652 124 83 237 142 246 128 3 -6 1 -72 -5 -148 -28
-334 42 -694 195 -1007 192 -394 494 -696 885 -884 110 -53 291 -121 323 -121
6 0 -43 35 -109 78 -350 230 -596 500 -778 856 -160 311 -224 752 -161 1111
24 139 65 303 78 313 7 6 84 40 171 77 389 163 606 296 818 503 262 255 388
530 388 847 0 406 -224 788 -615 1047 -238 159 -591 288 -975 358 -63 11 -126
23 -140 26 -53 11 1 -16 190 -96 423 -179 669 -327 860 -519 168 -168 264
-319 325 -511 22 -69 28 -110 33 -218 5 -152 -8 -230 -63 -348 -89 -194 -282
-393 -528 -543 -103 -63 -348 -183 -362 -177 -9 3 -14 43 -17 133 -4 110 -10
142 -37 222 -69 206 -174 367 -355 546 -205 203 -285 259 -726 505 -384 214
-511 300 -657 446 -200 202 -300 409 -326 679 -3 28 -4 28 -17 -15z"/>
<path d="M1837 12181 c82 -55 135 -117 184 -216 105 -213 89 -417 -57 -720
-53 -110 -85 -163 -288 -475 -171 -263 -262 -463 -303 -668 -24 -122 -24 -396
1 -510 38 -178 108 -343 207 -491 57 -86 100 -136 343 -398 202 -217 282 -377
305 -610 21 -211 -41 -453 -163 -632 -20 -29 -36 -55 -36 -57 0 -12 48 24 112
84 293 277 377 733 203 1109 -45 98 -125 219 -259 393 -246 318 -307 429 -351
642 -58 275 -15 507 155 842 48 94 134 263 191 376 158 311 202 462 202 690 0
198 -34 309 -139 457 -78 109 -223 207 -327 220 l-42 6 62 -42z"/>
<path d="M620 7337 c-146 -50 -257 -174 -289 -325 -15 -73 -16 -3116 0 -3299
57 -686 357 -1315 855 -1793 390 -375 884 -632 1411 -734 237 -46 295 -47
1358 -44 1116 4 1063 1 1370 78 193 48 375 114 550 201 826 406 1397 1178
1545 2087 6 39 15 72 18 72 4 0 68 -31 142 -68 528 -267 1133 -251 1635 43
424 248 729 681 813 1152 50 276 51 316 21 519 -33 226 -70 353 -155 533 -406
860 -1454 1219 -2304 789 -63 -32 -120 -56 -127 -54 -9 4 -13 76 -15 273 l-3
268 -32 68 c-41 86 -119 168 -195 206 -110 55 -126 56 -556 32 -214 -12 -449
-24 -523 -27 -74 -2 -291 -11 -484 -18 -411 -17 -1338 -36 -1780 -36 -832 0
-2241 43 -2920 90 -208 15 -261 12 -335 -13z m7942 -1152 c418 -73 771 -377
909 -783 104 -306 71 -672 -87 -947 -311 -546 -972 -758 -1531 -490 -149 71
-317 197 -376 282 l-27 39 0 746 0 747 57 61 c70 76 198 173 300 227 91 49
238 100 338 118 97 18 315 18 417 0z"/>
<path d="M71 916 c-27 -15 -71 -82 -71 -109 0 -9 11 -34 24 -55 30 -49 493
-502 571 -560 115 -85 241 -137 413 -172 95 -19 157 -20 2876 -20 2005 0 2797
3 2840 11 195 36 347 99 471 194 39 30 181 166 318 302 243 245 247 250 247
290 0 59 -14 90 -52 113 -33 20 -52 20 -3823 20 -3127 -1 -3794 -3 -3814 -14z"/>
</g>
</svg>
